PathFileType	4	(X/Y/Z)	C:\Users\Basilio\Documents\Thesis Gigler\squatting_fais\c3dfiles\076\SJ_pre3\markers_experimental.trc
DataRate	CameraRate	NumFrames	NumMarkers	Units	OrigDataRate	OrigDataStartFrame	OrigNumFrames
200.000000	200.000000	4	61	mm	200.000000	1194	1365
Frame#	Time	FHD			RBHD			C7			T10			CLAV			LSHO			LUUPA			LMUPA			LDUPA			LLEP			LMEP			LRAD			LUL			LRFIN			RSHO			RUPA1			RMUPA			RDUPA			RLEP			RMEP			RRAD			RUL			RUFIN			LASI			RASI			USACR			LSACR			RSACR			LTHI1			LTHI2			LTHI3			LTHI4			LLFC			LMFC			LTIB1			LTIB2			LTIB3			LTIB4			LLMAL			LMMAL			LHEE			LMT1			LMT2			LMT5			RTHI			RTHI2			RTHI3			RTHI4			RLFC			RMFC			RTIB1			RTIB2			RTIB3			RTIB4			RLMAL			RMMAL			RHEE			RMT1			RMT2			RMT5			LBHD			
		X1	Y1	Z1	X2	Y2	Z2	X3	Y3	Z3	X4	Y4	Z4	X5	Y5	Z5	X6	Y6	Z6	X7	Y7	Z7	X8	Y8	Z8	X9	Y9	Z9	X10	Y10	Z10	X11	Y11	Z11	X12	Y12	Z12	X13	Y13	Z13	X14	Y14	Z14	X15	Y15	Z15	X16	Y16	Z16	X17	Y17	Z17	X18	Y18	Z18	X19	Y19	Z19	X20	Y20	Z20	X21	Y21	Z21	X22	Y22	Z22	X23	Y23	Z23	X24	Y24	Z24	X25	Y25	Z25	X26	Y26	Z26	X27	Y27	Z27	X28	Y28	Z28	X29	Y29	Z29	X30	Y30	Z30	X31	Y31	Z31	X32	Y32	Z32	X33	Y33	Z33	X34	Y34	Z34	X35	Y35	Z35	X36	Y36	Z36	X37	Y37	Z37	X38	Y38	Z38	X39	Y39	Z39	X40	Y40	Z40	X41	Y41	Z41	X42	Y42	Z42	X43	Y43	Z43	X44	Y44	Z44	X45	Y45	Z45	X46	Y46	Z46	X47	Y47	Z47	X48	Y48	Z48	X49	Y49	Z49	X50	Y50	Z50	X51	Y51	Z51	X52	Y52	Z52	X53	Y53	Z53	X54	Y54	Z54	X55	Y55	Z55	X56	Y56	Z56	X57	Y57	Z57	X58	Y58	Z58	X59	Y59	Z59	X60	Y60	Z60	X61	Y61	Z61	

1195	5.97	-115.7195358276367	1514.613525390625	-895.1065673828127	-261.9644775390626	1541.90185546875	-862.8327636718752	-374.5308227539063	1434.571044921875	-943.0187988281252	-415.6752929687501	1103.148071289063	-948.6862792968752	-249.4224853515626	1338.685913085938	-942.7075195312502	-319.2318420410157	1369.485961914063	-1115.219482421875	-327.4383239746094	1211.521484375	-1243.824096679688	-312.6023254394532	1167.829345703125	-1223.925170898438	-333.2948913574219	1152.070556640625	-1279.33837890625	-344.6965637207032	1102.764404296875	-1307.015502929688	-425.3653259277345	1091.662841796875	-1273.727661132813	-353.3188476562501	923.5983886718752	-1142.625244140625	-306.3905029296876	894.2212524414065	-1175.998779296875	-308.6264648437501	942.7966918945315	-1116.467895507813	-315.9768371582032	1361.858276367188	-778.9793090820315	-356.6812133789063	1223.019897460938	-638.3348388671876	-324.0513000488282	1184.637084960938	-639.7413940429689	-363.4916076660157	1164.238037109375	-598.5158081054689	-356.3646850585938	1094.592407226563	-577.0632934570314	-429.7506408691407	1080.53515625	-624.8347778320314	-345.5161132812501	927.5900878906252	-752.7087402343751	-296.4126892089844	947.691833496094	-770.115417480469	-296.4457397460938	901.1790161132815	-714.7166137695314	-252.557846069336	921.3779296875002	-1053.415649414063	nan	nan	nan	-417.1314392089845	995.1629638671877	-947.5891113281252	-424.3648681640626	967.2409667968752	-976.7690429687502	-423.3557434082032	964.7903442382815	-920.1267089843752	-350.4715270996094	773.3323364257815	-1122.68212890625	-327.8915710449219	691.0711059570314	-1127.833862304688	-278.9218444824219	689.2680664062501	-1119.803466796875	-361.4678649902344	641.3274536132814	-1115.793090820313	-371.0802612304688	479.6363830566407	-1100.895385742188	-327.3652038574219	462.9170227050782	-992.1954345703127	-333.1601867675782	329.4550476074219	-1050.383666992188	-362.1844177246094	282.3173217773438	-1119.413696289063	-330.0405883789063	282.8369750976563	-1086.5634765625	-339.4603881835938	201.9977416992188	-1060.884033203125	-397.0792236328126	81.25182342529298	-1120.448608398438	-361.8888549804688	87.69076538085939	-1041.827880859375	-445.862030029297	43.11627197265626	-1072.253540039063	-234.1392211914063	54.38281250000001	-1081.765991210938	-234.2798004150391	55.07304763793947	-1120.492065429688	-259.1128234863282	44.43998336791993	-1168.924072265625	-355.2989807128907	677.7770385742189	-772.0076293945315	-322.5143737792969	619.3141479492189	-764.4250488281251	-288.1296386718751	619.3779907226564	-769.936218261719	-353.7448730468751	544.1786499023439	-777.4465332031252	-357.7821044921876	482.1280517578126	-778.618347167969	-320.7692260742188	466.9994201660157	-890.8145751953127	-317.1864318847657	348.8745117187501	-785.4114379882815	-386.4004516601564	268.6691284179688	-760.7515258789064	-339.5873107910157	266.4649963378907	-766.4397583007814	-321.3495788574219	219.0275115966797	-794.6093750000002	-378.2179870605469	78.82984924316408	-759.7447509765626	-350.1788024902344	89.4747772216797	-840.9786376953127	-429.0134277343751	49.67111587524415	-808.7735595703127	-221.0513000488282	52.56845092773439	-805.8074340820315	-221.3929138183594	56.69410324096681	-760.7462158203126	-252.0960845947266	35.01157379150391	-709.3331298828126	-251.8155822753907	1547.081787109375	-1015.299072265625	
1196	5.975000000000001	-115.4396667480469	1514.15625	-895.9099121093752	-261.6831359863282	1541.79248046875	-863.4791259765627	-374.3922729492188	1434.745483398438	-943.6478271484377	-416.0000000000001	1103.07421875	-949.2763671875002	-249.5037841796876	1338.569702148438	-943.4155273437502	-319.4387817382813	1369.47412109375	-1115.867919921875	-327.4851074218751	1211.501953125	-1244.547119140625	-312.7821350097657	1167.82861328125	-1224.433837890625	-333.4616088867188	1151.907348632813	-1279.77294921875	-344.6892700195313	1102.714477539063	-1307.546142578125	-425.5035095214845	1091.737426757813	-1274.599853515625	-353.5343322753907	923.3973388671877	-1143.2177734375	-306.8115844726563	894.3197021484377	-1176.626831054688	-308.8421325683594	942.8773193359377	-1117.030639648438	-315.8405151367188	1361.835815429688	-779.6462402343752	-356.6143188476563	1223.004150390625	-639.0315551757814	-324.0290527343751	1184.63330078125	-640.4694824218751	-363.4802856445313	1164.224243164063	-599.2001342773439	-356.3236999511719	1094.612548828125	-577.7340087890626	-429.7436828613282	1080.492309570313	-625.4605712890626	-345.7155151367188	927.6050415039065	-753.2708129882814	-296.5875854492188	947.6179809570315	-770.703308105469	-297.0885009765626	900.8983154296877	-715.8192138671876	-252.7750549316407	921.2331542968752	-1053.898559570313	nan	nan	nan	-417.3968505859376	995.2278442382815	-948.242370605469	-424.6282043457032	967.2399902343752	-977.3323974609377	-423.6520080566407	964.8409423828127	-920.6817016601565	-350.7650146484376	773.3370361328127	-1123.266967773438	-328.1599426269532	691.0543823242189	-1128.35986328125	-279.1376953125001	689.2267456054689	-1120.236206054688	-361.7639465332032	641.3736572265626	-1116.263793945313	-371.3724060058594	479.6769409179689	-1101.227905273438	-327.5769348144532	463.0471496582032	-992.542175292969	-333.3324279785157	329.4805297851563	-1050.593383789063	-362.3194580078126	282.2611694335938	-1119.623657226563	-330.1902465820313	282.8376464843751	-1086.739013671875	-339.5934753417969	201.961410522461	-1060.966186523438	-397.1759033203126	81.2316360473633	-1120.504760742188	-361.9062500000001	87.70836639404298	-1041.841064453125	-445.8533935546876	43.10764312744141	-1072.221923828125	-234.1637573242188	54.3391571044922	-1081.78515625	-234.3035125732422	55.07698822021486	-1120.50732421875	-259.1259765625001	44.43677139282227	-1168.926513671875	-355.5806274414063	677.8110351562501	-772.463073730469	-322.8091125488282	619.2921142578126	-764.7894897460939	-288.4428100585938	619.4933471679689	-770.3327636718752	-354.0183105468751	544.1116333007814	-777.8685302734377	-358.0275573730469	482.1728820800782	-779.0218505859377	-321.0283508300782	466.9326477050782	-891.058532714844	-317.2314758300782	348.9809875488282	-785.6370239257815	-386.5166320800782	268.6895446777344	-760.9454345703126	-339.6691589355469	266.4956665039063	-766.5900878906251	-321.4368591308594	219.0241851806641	-794.7131347656252	-378.2353820800782	78.8206253051758	-759.7966308593751	-350.1951599121094	89.43399047851564	-840.9904785156252	-429.0492553710939	49.65631103515626	-808.814147949219	-221.0391693115235	52.58237838745119	-805.799499511719	-221.4051361083985	56.72440338134767	-760.7491455078126	-252.0939483642579	35.03491210937501	-709.3677368164064	-251.540023803711	1546.942138671875	-1016.032165527344	
1197	5.98	-115.1978302001953	1513.857177734375	-896.7380371093752	-261.3991394042969	1541.6845703125	-864.255310058594	-374.2549438476563	1434.784912109375	-944.2791748046877	-416.326141357422	1103.158081054688	-949.9093017578127	-249.5621032714844	1338.495361328125	-943.9934692382815	-319.4942626953126	1369.428100585938	-1116.615600585938	-327.4496154785157	1211.450439453125	-1245.183227539063	-312.8955993652344	1167.795166015625	-1225.097290039063	-333.3135681152344	1151.816650390625	-1280.422241210938	-344.2802734375001	1102.575439453125	-1307.956298828125	-425.7369995117189	1091.661499023438	-1275.320922851563	-353.6045837402344	923.4573364257815	-1143.918823242188	-307.1753234863282	894.296081542969	-1177.276611328125	-309.3031311035157	942.888854980469	-1117.795166015625	-315.7942504882813	1361.80322265625	-780.317810058594	-356.6089172363282	1223.077026367188	-639.6834716796876	-323.9089660644532	1184.700561523438	-641.0731201171876	-363.4228515625001	1164.283447265625	-599.8927612304689	-356.3125000000001	1094.6640625	-578.3152465820314	-429.8846740722657	1080.449829101563	-625.9711914062501	-346.0195922851563	927.524841308594	-753.8433227539064	-296.8601379394532	947.597595214844	-771.3095703125002	-297.3176574707032	900.8469848632815	-716.3944091796876	-252.6735382080079	921.400817871094	-1054.041748046875	nan	nan	nan	-417.6951904296876	995.118835449219	-948.7690429687502	-424.8182373046876	967.2139892578127	-977.927917480469	-424.0442199707032	964.6558227539065	-921.234069824219	-350.4253540039063	773.1917114257815	-1123.725463867188	-328.5191955566407	691.0664672851564	-1128.849365234375	-279.6117553710938	689.2416992187501	-1120.708374023438	-362.1364135742188	641.3837890625001	-1116.688232421875	-371.6255493164063	479.6474914550782	-1101.550048828125	-327.9040222167969	463.0851440429689	-992.8524169921877	-333.4533081054688	329.5181274414063	-1050.78759765625	-362.4450988769532	282.2101135253907	-1119.794921875	-330.3211669921876	282.8547973632813	-1086.896850585938	-339.8312988281251	201.7895660400391	-1061.093872070313	-397.2264404296876	81.16126251220705	-1120.569091796875	-361.9236145019532	87.70100402832033	-1041.900634765625	-445.9270019531251	43.07522201538087	-1072.244506835938	-234.1854095458985	54.3262405395508	-1081.76953125	-234.3037109375001	55.0493621826172	-1120.526977539063	-259.1983337402344	44.45735931396485	-1168.969482421875	-355.8645629882813	677.8323364257814	-772.9110107421877	-323.0812377929688	619.3367919921876	-765.1787719726564	-288.7525634765626	619.4700317382814	-770.7664794921877	-354.2632141113282	544.1115112304689	-778.3562622070315	-358.1243286132813	482.2395935058595	-779.4006347656252	-321.0528869628907	466.8592529296876	-891.3552246093752	-317.3091125488282	349.0513000488282	-785.8569946289065	-386.6417846679689	268.6848144531251	-761.1569824218751	-339.7929077148438	266.5884399414063	-766.7041625976564	-321.4864807128907	219.0162200927735	-794.816833496094	-378.2445373535157	78.82996368408205	-759.7982788085939	-350.1419677734376	89.36976623535158	-841.0302734375002	-429.0223693847657	49.6455535888672	-808.7505493164065	-221.0092163085938	52.5629234313965	-805.7979736328127	-221.3444213867188	56.707820892334	-760.7024536132814	-252.0977325439454	34.97807693481446	-709.3590698242189	-251.2879486083985	1546.770141601563	-1016.759216308594	
1198	5.985	-115.0929794311524	1513.399169921875	-897.4772949218752	-261.1201171875001	1541.532348632813	-865.1035156250002	-374.2494812011719	1434.796142578125	-944.9947509765627	-416.6162719726564	1103.290771484375	-950.4948730468752	-249.5616455078126	1338.307983398438	-944.690368652344	-319.6183776855469	1369.29443359375	-1117.194946289063	-327.6398925781251	1211.402099609375	-1245.886474609375	-312.9892883300782	1167.771118164063	-1225.86474609375	-333.3797607421876	1151.82470703125	-1281.112182617188	-344.5007629394532	1102.477783203125	-1308.70068359375	-425.8648071289064	1091.692749023438	-1275.947387695313	-354.2617187500001	923.5018310546877	-1144.524291992188	-307.4733581542969	894.3242797851565	-1177.981811523438	-309.6064453125001	942.9107666015627	-1118.369506835938	-315.7358398437501	1361.7900390625	-781.030212402344	-356.4949951171876	1223.18798828125	-640.3140869140626	-323.8649291992188	1184.740844726563	-641.6774291992189	-363.3794250488282	1164.3408203125	-600.5456542968751	-356.2740173339844	1094.735107421875	-578.9605102539064	-429.9169006347657	1080.567749023438	-626.5033569335939	-346.1722106933594	927.524597167969	-754.4602661132814	-297.1092834472657	947.5886840820315	-771.921569824219	-297.1416931152344	901.112243652344	-716.4478149414064	-253.1972045898438	920.7617797851565	-1054.631469726563	nan	nan	nan	-417.9490051269532	995.1521606445315	-949.2763671875002	-425.1874389648439	967.2099609375002	-978.4478149414065	-424.3888549804689	964.7807617187502	-921.8388671875002	-350.7861633300782	773.1483154296877	-1124.335815429688	-328.9061889648438	690.9829101562501	-1129.3251953125	-279.8194274902344	689.2246093750001	-1121.102416992188	-362.4246215820313	641.3311767578126	-1117.088745117188	-371.8875122070313	479.6344299316407	-1101.845703125	-328.2115783691407	463.1059570312501	-993.2691650390627	-333.6635131835938	329.5595092773438	-1050.98388671875	-362.5976257324219	282.0913696289063	-1119.969116210938	-330.5124816894532	282.8821105957032	-1087.160766601563	-339.8381652832032	201.9189453125001	-1061.252685546875	-397.2455444335939	81.14071655273439	-1120.478149414063	-361.9698181152344	87.69493103027345	-1041.914794921875	-445.914764404297	43.02629089355469	-1072.30078125	-234.1766662597657	54.38594436645509	-1081.762817382813	-234.3278045654297	55.05646896362306	-1120.532958984375	-258.0386962890626	43.9460792541504	-1168.515991210938	-356.3027038574219	677.7537841796876	-773.5007934570315	-323.3957824707032	619.2645263671876	-765.5891113281251	-289.0312805175782	619.5009765625001	-771.1003417968752	-354.5719299316407	544.1259765625001	-778.839538574219	-358.2984924316407	482.2156372070314	-779.7614746093752	-320.9786376953126	466.8778076171876	-891.8430786132815	-317.3768310546876	349.1436767578126	-786.0598754882815	-386.762664794922	268.6151733398438	-761.3656616210939	-339.8720703125001	266.6024780273438	-766.8787841796876	-321.5558471679688	219.0338134765626	-794.937683105469	-378.2353210449219	78.86558532714845	-759.8311767578126	-351.1585998535157	89.60463714599611	-841.3852539062502	-429.1371154785157	49.69729232788087	-808.7192993164065	-221.0356140136719	52.55333709716798	-805.8009033203127	-221.3786315917969	56.71401596069337	-760.7298583984376	-252.0941925048829	35.0189323425293	-709.3934326171876	-251.1393737792969	1546.643310546875	-1017.552124023438	
